<svg width="64" height="64" viewBox="0 0 64 64" fill="none" xmlns="http://www.w3.org/2000/svg">
<rect width="64" height="64" fill="none"/>
<rect x="-258" y="-332" width="1920" height="4493" fill="white" fill-opacity="0"/>
<path d="M56.792 14.592V19.072H49.752V56H44.12V38.848H32.024V34.368H44.12V19.072H29.976V30.72C29.976 34.304 28.9733 36.8 26.968 38.208C24.9627 39.616 21.8267 40.32 17.56 40.32H17.176V43.52C17.176 46.5067 17.8373 48.576 19.16 49.728C20.5253 50.88 22.8507 51.456 26.136 51.456H36.056V56H26.136C21.4427 56 17.8373 55.1253 15.32 53.376C12.8027 51.584 11.544 48.2987 11.544 43.52V28.544H17.176V35.84H17.56C19.9493 35.84 21.6773 35.52 22.744 34.88C23.8107 34.1973 24.344 32.8107 24.344 30.72V19.072H6.36V14.592H56.792Z" fill="white"/>
</svg>
